#N canvas 739 84 413 204 10;
#X obj -293 -24 pack f f f f f f;
#X obj -292 -53 inlet;
#X obj -254 -52 inlet;
#X obj -215 -52 inlet;
#X obj -176 -51 inlet;
#X obj -137 -51 inlet;
#X obj -99 -51 inlet;
#X obj -293 3 expr $f1 + $f2 + $f3 + $f4 + $f5 + $f6;
#X obj -292 68 outlet;
#X obj -293 35 maxlib/scale 0 1.2 0 100;
#X connect 0 0 7 0;
#X connect 1 0 0 0;
#X connect 2 0 0 1;
#X connect 3 0 0 2;
#X connect 4 0 0 3;
#X connect 5 0 0 4;
#X connect 6 0 0 5;
#X connect 7 0 9 0;
#X connect 9 0 8 0;
