#N canvas 576 194 557 504 10;
#X obj 18 56 inlet;
#X obj 18 99 outlet;
#X obj 66 99 inlet;
#X obj 66 142 outlet;
#X obj 115 142 inlet;
#X obj 115 185 outlet;
#X obj 163 185 inlet;
#X obj 163 228 outlet;
#X obj 212 228 inlet;
#X obj 212 271 outlet;
#X obj 259 271 inlet;
#X obj 259 314 outlet;
#X obj 307 314 inlet;
#X obj 307 357 outlet;
#X obj 357 357 inlet;
#X obj 357 400 outlet;
#X obj 72 339 receive ARDUINO_TEST_RESET;
#X obj 18 77 mapping/resample \$1;
#X obj 66 120 mapping/resample \$1;
#X obj 115 163 mapping/resample \$1;
#X obj 163 206 mapping/resample \$1;
#X obj 212 249 mapping/resample \$1;
#X obj 259 292 mapping/resample \$1;
#X obj 307 335 mapping/resample \$1;
#X obj 357 378 mapping/resample \$1;
#X obj 485 46 inlet;
#X connect 0 0 17 0;
#X connect 2 0 18 0;
#X connect 4 0 19 0;
#X connect 6 0 20 0;
#X connect 8 0 21 0;
#X connect 10 0 22 0;
#X connect 12 0 23 0;
#X connect 14 0 24 0;
#X connect 16 0 17 0;
#X connect 16 0 18 0;
#X connect 16 0 19 0;
#X connect 16 0 20 0;
#X connect 16 0 21 0;
#X connect 16 0 22 0;
#X connect 16 0 23 0;
#X connect 16 0 24 0;
#X connect 17 0 1 0;
#X connect 18 0 3 0;
#X connect 19 0 5 0;
#X connect 20 0 7 0;
#X connect 21 0 9 0;
#X connect 22 0 11 0;
#X connect 23 0 13 0;
#X connect 24 0 15 0;
#X connect 25 0 17 1;
#X connect 25 0 18 1;
#X connect 25 0 19 1;
#X connect 25 0 20 1;
#X connect 25 0 21 1;
#X connect 25 0 22 1;
#X connect 25 0 23 1;
#X connect 25 0 24 1;
