#N canvas 282 63 327 258 10;
#X msg 43 -44 1;
#X obj 30 -15 -;
#X obj 30 15 abs;
#X obj 20 -88 hsl 128 15 0 1 0 0 empty empty empty -2 -8 0 10 -262144
-1 -1 0 1;
#X obj 15 45 *~;
#X obj 155 47 *~;
#X obj -17 16 inlet~;
#X obj 155 17 inlet~;
#X obj 67 108 outlet~;
#X obj 93 45 *~;
#X obj 61 16 inlet~;
#X obj 211 46 *~;
#X obj 211 16 inlet~;
#X obj 161 113 outlet~;
#X connect 0 0 1 1;
#X connect 1 0 2 0;
#X connect 2 0 4 1;
#X connect 2 0 9 1;
#X connect 3 0 0 0;
#X connect 3 0 1 0;
#X connect 3 0 5 1;
#X connect 3 0 11 1;
#X connect 4 0 8 0;
#X connect 5 0 8 0;
#X connect 6 0 4 0;
#X connect 7 0 5 0;
#X connect 9 0 13 0;
#X connect 10 0 9 0;
#X connect 11 0 13 0;
#X connect 12 0 11 0;
#X coords 0 -1 1 1 135 20 1 17 -90;
