#N canvas 45 22 896 668 10;
#X obj 8 316 route analog;
#X obj 8 341 route 0 1 2 3 4 5 6 7;
#X obj -78 373 maxlib/scale 0 0.5 0 1;
#X obj -60 549 outlet;
#X obj -30 396 maxlib/scale 0 0.5 0 1;
#X obj -16 552 outlet;
#X obj 21 423 maxlib/scale 0 0.5 0 1;
#X obj 28 552 outlet;
#X obj 66 449 maxlib/scale 0 0.5 0 1;
#X obj 72 550 outlet;
#X obj 66 372 maxlib/scale 0 0.5 0 1;
#X obj 117 549 outlet;
#X obj 121 398 maxlib/scale 0 0.5 0 1;
#X obj 157 550 outlet;
#X obj 170 426 maxlib/scale 0 0.5 0 1;
#X obj 198 550 outlet;
#X obj 222 453 maxlib/scale 0 0.5 0 1;
#X obj 242 551 outlet;
#X obj -35 260 inlet;
#X obj -62 476 analog-buffer 20;
#X obj -90 23 tgl 15 0 sync_button empty sync 17 7 0 10 -262144 -1
-1 0 1;
#X floatatom -22 191 5 0 0 0 buffer_(ms) - -;
#X obj -22 214 s buffer-length;
#X obj 79 478 r buffer-length;
#X obj 8 262 r arduino-messages-000;
#X obj -108 523 aggregate;
#X obj -108 551 outlet;
#X obj 394 253 s arduino-messages-000;
#X obj 8 292 arduino 2 9600;
#X obj 342 24 sel 1;
#X obj 494 81 sel 0;
#X msg 288 80 digital 13 1;
#X msg 537 133 digital 13 0;
#X msg 494 132 close;
#X msg 390 106 open 2;
#X obj 494 106 t b b;
#X obj 341 -9 r sync_button;
#N canvas 698 22 318 215 reset 0;
#X obj 65 24 inlet;
#X obj 66 58 bang;
#X obj 66 150 send ARDUINO_TEST_RESET;
#X msg 66 129 0;
#X msg 111 99 1;
#X obj 111 120 send ARDUINO_PINMODE_RESET;
#X connect 0 0 1 0;
#X connect 1 0 3 0;
#X connect 1 0 4 0;
#X connect 3 0 2 0;
#X connect 4 0 5 0;
#X restore 405 80 pd reset guis;
#X msg -24 166 set 20;
#X obj -103 148 loadbang;
#X obj 342 50 t b b b b b;
#N canvas 0 22 451 224 ver 0;
#X obj 23 7 inlet;
#X obj 250 100 cnv 15 145 17 empty \$0-version_cnv Firmata-2.0 4 10
0 12 -203904 -1 0;
#X obj 23 157 send \$0-version_cnv;
#X msg 23 132 label \$1;
#X obj 48 103 symbol;
#X obj 38 77 loadbang;
#X msg 96 78 bang;
#X obj 309 163 outlet;
#X obj 23 52 zexy/makesymbol Firmata-%s.%s;
#X obj 23 29 route version bang;
#X connect 0 0 9 0;
#X connect 3 0 2 0;
#X connect 4 0 3 0;
#X connect 5 0 4 0;
#X connect 6 0 4 0;
#X connect 8 0 3 0;
#X connect 9 0 8 0;
#X connect 9 1 7 0;
#X connect 9 1 6 0;
#X connect 9 2 7 0;
#X coords 0 -1 1 1 145 17 1 250 100;
#X restore -92 48 pd ver;
#N canvas 649 518 411 212 firmware 0;
#X obj 123 2 inlet;
#X obj 250 100 cnv 15 145 17 empty \$0-firmware_cnv StandardFirmata-2.0
4 10 0 12 -232576 -66577 0;
#X msg 123 156 label \$1;
#X obj 148 127 symbol;
#X obj 138 101 loadbang;
#X msg 196 102 bang;
#X obj 123 181 send \$0-firmware_cnv;
#X obj 123 24 route firmware;
#X obj 18 181 print Firmware;
#X obj 123 49 list;
#X obj 123 80 zexy/makesymbol %s-%s.%s;
#X obj 18 151 list trim;
#X obj 204 45 route bang;
#X connect 0 0 7 0;
#X connect 2 0 6 0;
#X connect 3 0 2 0;
#X connect 4 0 3 0;
#X connect 5 0 3 0;
#X connect 7 0 9 0;
#X connect 7 1 12 0;
#X connect 9 0 10 0;
#X connect 10 0 2 0;
#X connect 10 0 11 0;
#X connect 11 0 8 0;
#X connect 12 0 5 0;
#X coords 0 -1 1 1 145 17 1 250 100;
#X restore -92 74 pd firmware;
#N canvas 623 75 404 287 device 0;
#X obj 35 60 inlet;
#X obj 35 118 route open port ports;
#X obj 35 169 tgl 15 0 empty empty open -3 20 0 10 -262144 -1 -1 1
1;
#X floatatom 76 170 5 0 0 3 port - -;
#X obj 117 170 print comport_ports;
#X obj 252 170 outlet;
#X obj 235 74 receive ARDUINO_TEST_RESET;
#X obj 235 97 bang;
#X connect 0 0 1 0;
#X connect 1 0 2 0;
#X connect 1 1 3 0;
#X connect 1 2 4 0;
#X connect 1 3 5 0;
#X connect 6 0 7 0;
#X connect 7 0 5 0;
#X restore 70 -1 pd device info;
#X obj 94 315 s arduino-info;
#X obj 70 -27 r arduino-info;
#X obj 372 158 t b b;
#X msg 432 187 info;
#X msg 372 187 firmware;
#X msg -93 258 devices;
#X obj -30 23 tgl 15 0 open_a2d empty empty 17 7 0 10 -262144 -1 -1
0 1;
#X text -8 22 open A/D;
#N canvas 245 242 255 342 toggle_a2d 0;
#X obj 23 15 inlet;
#X obj 23 245 outlet;
#X obj 147 289 outlet;
#X obj 23 154 count 6;
#X msg 67 124 reset;
#X obj 24 124 uzi 6;
#X obj 24 96 t b b;
#X obj 24 219 trigger bang anything;
#X obj 146 242 list;
#X msg 24 182 analogIns \$1 1;
#X msg 147 263 \$1 \$2 \$3;
#X obj 23 54 sel 1;
#X obj 124 69 sel 0;
#X obj 124 155 count 6;
#X msg 168 125 reset;
#X obj 125 125 uzi 6;
#X obj 125 97 t b b;
#X msg 125 183 analogIns \$1 0;
#X connect 0 0 12 0;
#X connect 0 0 11 0;
#X connect 3 0 9 0;
#X connect 4 0 3 0;
#X connect 5 0 3 0;
#X connect 6 0 5 0;
#X connect 6 1 4 0;
#X connect 7 0 1 0;
#X connect 7 1 8 0;
#X connect 8 0 10 0;
#X connect 9 0 7 0;
#X connect 10 0 2 0;
#X connect 11 0 6 0;
#X connect 12 0 16 0;
#X connect 13 0 17 0;
#X connect 14 0 13 0;
#X connect 15 0 13 0;
#X connect 16 0 15 0;
#X connect 16 1 14 0;
#X connect 17 0 7 0;
#X restore 194 81 pd toggle_a2d;
#X obj 194 52 r open_a2d;
#X obj 485 199 cnv 15 100 22 empty empty empty 20 12 0 14 -253938 -66577
0;
#X msg -89 124 open 2;
#N canvas 10 336 386 411 serin 0;
#X obj 180 61 cnv 15 15 15 empty \$0-number-canvas 2 4 8 0 14 -233017
-1 0;
#X obj 200 225 s \$0-number-canvas;
#X obj 60 61 hradio 15 1 1 8 empty empty empty 0 -6 0 8 -225271 -1
-1 2;
#X obj 60 13 inlet;
#X msg 200 202 label \$1;
#X obj 200 180 makefilename %d;
#X obj 59 108 int;
#X msg 59 206 open \$1;
#X obj 59 377 outlet;
#X msg 201 306 set \$1 \$2;
#X obj 59 266 trigger bang anything;
#X obj 201 286 list;
#N canvas 698 22 318 215 reset 0;
#X obj 65 24 inlet;
#X obj 66 58 bang;
#X obj 66 150 send ARDUINO_TEST_RESET;
#X msg 66 129 0;
#X msg 111 99 1;
#X obj 111 120 send ARDUINO_PINMODE_RESET;
#X connect 0 0 1 0;
#X connect 1 0 3 0;
#X connect 1 0 4 0;
#X connect 3 0 2 0;
#X connect 4 0 5 0;
#X restore 172 111 pd reset guis;
#X connect 2 0 6 0;
#X connect 2 0 12 0;
#X connect 3 0 2 0;
#X connect 4 0 1 0;
#X connect 5 0 4 0;
#X connect 6 0 5 0;
#X connect 6 0 7 0;
#X connect 7 0 10 0;
#X connect 9 0 8 0;
#X connect 10 0 8 0;
#X connect 10 1 11 0;
#X connect 11 0 9 0;
#X coords 0 -1 1 1 136 17 1 60 60;
#X restore -89 101 pd serin;
#X msg -29 124 close;
#X obj 714 174 tgl 15 1 empty ARDUINO_PINMODE_RESET 13 0 -6 1 12 -260818
-1 -1 1 1;
#X msg 495 222 pinMode 13 1;
#N canvas 163 104 700 327 send-to-arduino------------------- 0;
#X obj 49 24 inlet;
#X obj 89 24 inlet;
#X obj 128 24 inlet;
#X obj 168 24 inlet;
#X obj 208 24 inlet;
#X obj 248 24 inlet;
#X obj 287 24 inlet;
#X obj 327 24 inlet;
#X obj 368 23 inlet;
#X obj 408 23 inlet;
#X obj 447 23 inlet;
#X obj 487 23 inlet;
#X obj 527 23 inlet;
#X msg 49 66 pinMode 0 \$1;
#X msg 89 88 pinMode 1 \$1;
#X msg 128 110 pinMode 2 \$1;
#X msg 168 130 pinMode 3 \$1;
#X msg 208 62 pinMode 4 \$1;
#X msg 248 84 pinMode 5 \$1;
#X msg 287 106 pinMode 6 \$1;
#X msg 327 126 pinMode 7 \$1;
#X msg 368 58 pinMode 8 \$1;
#X msg 408 80 pinMode 9 \$1;
#X msg 447 102 pinMode 10 \$1;
#X msg 487 122 pinMode 11 \$1;
#X msg 527 50 pinMode 12 \$1;
#X obj 566 23 inlet;
#X msg 566 70 pinMode 13 \$1;
#X obj 305 282 outlet;
#X obj 305 243 trigger bang anything;
#X obj 305 196 list prepend set;
#X obj 305 220 list trim;
#X connect 0 0 13 0;
#X connect 1 0 14 0;
#X connect 2 0 15 0;
#X connect 3 0 16 0;
#X connect 4 0 17 0;
#X connect 5 0 18 0;
#X connect 6 0 19 0;
#X connect 7 0 20 0;
#X connect 8 0 21 0;
#X connect 9 0 22 0;
#X connect 10 0 23 0;
#X connect 11 0 24 0;
#X connect 12 0 25 0;
#X connect 13 0 30 0;
#X connect 14 0 30 0;
#X connect 15 0 30 0;
#X connect 16 0 30 0;
#X connect 17 0 30 0;
#X connect 18 0 30 0;
#X connect 19 0 30 0;
#X connect 20 0 30 0;
#X connect 21 0 30 0;
#X connect 22 0 30 0;
#X connect 23 0 30 0;
#X connect 24 0 30 0;
#X connect 25 0 30 0;
#X connect 26 0 27 0;
#X connect 27 0 30 0;
#X connect 29 0 28 0;
#X connect 29 1 28 0;
#X connect 30 0 31 0;
#X connect 31 0 29 0;
#X restore 495 200 pd send-to-arduino-------------------;
#X connect 0 0 1 0;
#X connect 1 0 2 0;
#X connect 1 1 4 0;
#X connect 1 2 6 0;
#X connect 1 3 8 0;
#X connect 1 4 10 0;
#X connect 1 5 12 0;
#X connect 1 6 14 0;
#X connect 1 7 16 0;
#X connect 2 0 19 0;
#X connect 4 0 19 1;
#X connect 6 0 19 2;
#X connect 8 0 19 3;
#X connect 10 0 19 4;
#X connect 12 0 19 5;
#X connect 14 0 19 6;
#X connect 16 0 19 7;
#X connect 18 0 28 0;
#X connect 19 0 3 0;
#X connect 19 0 25 0;
#X connect 19 1 5 0;
#X connect 19 1 25 1;
#X connect 19 2 7 0;
#X connect 19 2 25 2;
#X connect 19 3 9 0;
#X connect 19 3 25 3;
#X connect 19 4 11 0;
#X connect 19 4 25 4;
#X connect 19 5 13 0;
#X connect 19 5 25 5;
#X connect 19 6 15 0;
#X connect 19 7 17 0;
#X connect 21 0 22 0;
#X connect 23 0 19 8;
#X connect 24 0 28 0;
#X connect 25 0 26 0;
#X connect 28 0 0 0;
#X connect 28 1 44 0;
#X connect 29 0 40 0;
#X connect 30 0 35 0;
#X connect 31 0 27 0;
#X connect 32 0 27 0;
#X connect 33 0 27 0;
#X connect 34 0 27 0;
#X connect 35 0 33 0;
#X connect 35 1 32 0;
#X connect 36 0 30 0;
#X connect 36 0 29 0;
#X connect 38 0 21 0;
#X connect 39 0 38 0;
#X connect 39 0 49 0;
#X connect 40 0 31 0;
#X connect 40 2 46 0;
#X connect 40 3 34 0;
#X connect 40 4 37 0;
#X connect 41 0 42 0;
#X connect 43 0 41 0;
#X connect 45 0 43 0;
#X connect 46 0 48 0;
#X connect 46 1 47 0;
#X connect 47 0 27 0;
#X connect 48 0 27 0;
#X connect 49 0 28 0;
#X connect 52 0 27 0;
#X connect 52 1 27 0;
#X connect 53 0 52 0;
#X connect 55 0 27 0;
#X connect 56 0 55 0;
#X connect 57 0 27 0;
#X connect 58 0 60 13;
#X connect 59 0 27 0;
#X connect 60 0 59 0;
#X coords 0 -1 1 1 160 130 1 -100 0;
