#N canvas 747 463 450 300 10;
#X obj 60 156 count 6;
#X obj 60 68 bng 15 250 50 0 empty empty empty 17 7 0 10 -262144 -1
-1;
#X msg 104 126 reset;
#X obj 61 126 uzi 6;
#X obj 61 98 t b b;
#X connect 1 0 4 0;
#X connect 2 0 0 0;
#X connect 3 0 0 0;
#X connect 4 0 3 0;
#X connect 4 1 2 0;
