#N canvas 0 22 848 326 10;
#X obj 37 98 step_detection;
#X obj 37 150 tgl 15 0 empty empty empty 17 7 0 10 -262144 -1 -1 0
1;
#X obj 77 151 tgl 15 0 empty empty empty 17 7 0 10 -262144 -1 -1 0
1;
#X obj 118 152 tgl 15 0 empty empty empty 17 7 0 10 -262144 -1 -1 0
1;
#X obj 118 125 != 1;
#X obj 37 194 three_step_noise;
#X obj 173 98 step_detection;
#X obj 173 150 tgl 15 0 empty empty empty 17 7 0 10 -262144 -1 -1 0
1;
#X obj 213 151 tgl 15 0 empty empty empty 17 7 0 10 -262144 -1 -1 0
1;
#X obj 254 152 tgl 15 0 empty empty empty 17 7 0 10 -262144 -1 -1 0
1;
#X obj 254 125 != 1;
#X obj 173 194 three_step_noise;
#X obj 309 99 step_detection;
#X obj 309 151 tgl 15 0 empty empty empty 17 7 0 10 -262144 -1 -1 0
1;
#X obj 349 152 tgl 15 0 empty empty empty 17 7 0 10 -262144 -1 -1 0
1;
#X obj 390 153 tgl 15 0 empty empty empty 17 7 0 10 -262144 -1 -1 0
1;
#X obj 390 126 != 1;
#X obj 309 195 three_step_noise;
#X obj 436 100 step_detection;
#X obj 436 152 tgl 15 0 empty empty empty 17 7 0 10 -262144 -1 -1 0
1;
#X obj 476 153 tgl 15 0 empty empty empty 17 7 0 10 -262144 -1 -1 0
1;
#X obj 517 154 tgl 15 0 empty empty empty 17 7 0 10 -262144 -1 -1 0
1;
#X obj 517 127 != 1;
#X obj 436 196 three_step_noise;
#X obj 567 100 step_detection;
#X obj 567 152 tgl 15 0 empty empty empty 17 7 0 10 -262144 -1 -1 0
1;
#X obj 607 153 tgl 15 0 empty empty empty 17 7 0 10 -262144 -1 -1 0
1;
#X obj 648 154 tgl 15 0 empty empty empty 17 7 0 10 -262144 -1 -1 0
1;
#X obj 648 127 != 1;
#X obj 567 196 three_step_noise;
#X obj 691 100 step_detection;
#X obj 691 152 tgl 15 0 empty empty empty 17 7 0 10 -262144 -1 -1 0
1;
#X obj 731 153 tgl 15 0 empty empty empty 17 7 0 10 -262144 -1 -1 0
1;
#X obj 772 154 tgl 15 0 empty empty empty 17 7 0 10 -262144 -1 -1 0
1;
#X obj 772 127 != 1;
#X obj 691 196 three_step_noise;
#X obj 41 52 inlet;
#X obj 173 50 inlet;
#X obj 310 52 inlet;
#X obj 437 64 inlet;
#X obj 568 64 inlet;
#X obj 691 65 inlet;
#X obj 260 292 outlet~;
#X obj 472 299 outlet~;
#X connect 0 0 1 0;
#X connect 0 1 2 0;
#X connect 0 2 4 0;
#X connect 1 0 5 0;
#X connect 2 0 5 1;
#X connect 3 0 5 2;
#X connect 4 0 3 0;
#X connect 5 0 42 0;
#X connect 5 0 43 0;
#X connect 6 0 7 0;
#X connect 6 1 8 0;
#X connect 6 2 10 0;
#X connect 7 0 11 0;
#X connect 8 0 11 1;
#X connect 9 0 11 2;
#X connect 10 0 9 0;
#X connect 11 0 42 0;
#X connect 11 0 43 0;
#X connect 12 0 13 0;
#X connect 12 1 14 0;
#X connect 12 2 16 0;
#X connect 13 0 17 0;
#X connect 14 0 17 1;
#X connect 15 0 17 2;
#X connect 16 0 15 0;
#X connect 17 0 42 0;
#X connect 17 0 43 0;
#X connect 18 0 19 0;
#X connect 18 1 20 0;
#X connect 18 2 22 0;
#X connect 19 0 23 0;
#X connect 20 0 23 1;
#X connect 21 0 23 2;
#X connect 22 0 21 0;
#X connect 23 0 42 0;
#X connect 23 0 43 0;
#X connect 24 0 25 0;
#X connect 24 1 26 0;
#X connect 24 2 28 0;
#X connect 25 0 29 0;
#X connect 26 0 29 1;
#X connect 27 0 29 2;
#X connect 28 0 27 0;
#X connect 29 0 42 0;
#X connect 29 0 43 0;
#X connect 30 0 31 0;
#X connect 30 1 32 0;
#X connect 30 2 34 0;
#X connect 31 0 35 0;
#X connect 32 0 35 1;
#X connect 33 0 35 2;
#X connect 34 0 33 0;
#X connect 35 0 42 0;
#X connect 35 0 43 0;
#X connect 36 0 0 0;
#X connect 37 0 6 0;
#X connect 38 0 12 0;
#X connect 39 0 18 0;
#X connect 40 0 24 0;
#X connect 41 0 30 0;
