#N canvas 271 61 755 439 10;
#X floatatom 281 53 5 0 0 0 - - -;
#X obj 281 106 *~ 4410;
#X obj 281 79 phasor~ 0.09;
#X obj 125 306 *~;
#X obj 126 380 outlet~;
#X obj 262 379 outlet~;
#X obj 258 347 *~;
#X obj 125 343 *~;
#X obj 234 292 *~ -1;
#X obj 235 315 +~ 1;
#X obj 156 204 phasor~ 1;
#X text 343 106 speed of phasor = speed of window read.. 1hz = 1 window
per sec;
#X text 344 136 NOTE phasor doesn't reset phase on frequency change
though!!;
#X obj 106 228 *~;
#X obj 125 253 tabread4~ window;
#X obj 104 170 *~ 256;
#X obj 157 172 inlet;
#X obj 280 24 inlet;
#X obj 70 256 inlet~;
#X text 332 20 grain driver frequency;
#X text 13 236 Sound source;
#X obj 104 142 tabread~ \$1-window-length;
#X obj 275 261 tabread4~ \$1-pan;
#X text 195 168 grain spacing;
#X connect 0 0 2 0;
#X connect 1 0 21 0;
#X connect 1 0 22 0;
#X connect 2 0 1 0;
#X connect 3 0 6 0;
#X connect 3 0 7 0;
#X connect 6 0 5 0;
#X connect 7 0 4 0;
#X connect 8 0 9 0;
#X connect 9 0 7 1;
#X connect 10 0 13 1;
#X connect 13 0 14 0;
#X connect 14 0 3 0;
#X connect 15 0 13 0;
#X connect 16 0 10 0;
#X connect 17 0 0 0;
#X connect 18 0 3 1;
#X connect 21 0 15 0;
#X connect 22 0 8 0;
#X connect 22 0 6 1;
