#N canvas 666 23 600 418 10;
#X obj 66 35 adc~ 1;
#X obj 67 241 writesf~;
#X msg 157 35 open /Users/lee/pd/sounds/recording/temprecording.wav
;
#X msg 90 194 start;
#X msg 105 217 stop;
#X obj 157 245 readsf~;
#X obj 158 111 spigot;
#X obj 103 112 spigot;
#X obj 129 36 tgl 15 0 empty empty empty 17 7 0 10 -262144 -1 -1 0
1;
#X obj 191 85 != 1;
#X msg 168 194 start;
#X msg 183 217 stop;
#X text 132 13 recording?;
#X connect 0 0 1 0;
#X connect 2 0 7 0;
#X connect 2 0 6 0;
#X connect 3 0 1 0;
#X connect 4 0 1 0;
#X connect 6 0 5 0;
#X connect 7 0 1 0;
#X connect 8 0 9 0;
#X connect 8 0 7 1;
#X connect 9 0 6 1;
#X connect 10 0 5 0;
#X connect 11 0 5 0;
