#N canvas 455 250 561 423 10;
#X obj -126 56 route 0 1 2 3 4 5 6 7;
#X obj -256 321 aggregate;
#X obj -125 28 inlet;
#X obj -256 349 outlet;
#X obj -124 275 analog-buffer 20;
#X obj -115 348 outlet;
#X obj -72 351 outlet;
#X obj -27 351 outlet;
#X obj 21 353 outlet;
#X obj 66 354 outlet;
#X obj 109 353 outlet;
#X obj -287 189 maxlib/scale \$1 \$2 0 0.5;
#X obj -228 164 maxlib/scale \$1 \$2 0 0.5;
#X obj -166 140 maxlib/scale \$1 \$2 0 0.5;
#X obj -116 114 maxlib/scale \$1 \$2 0 0.5;
#X obj 51 112 maxlib/scale \$1 \$2 0 0.5;
#X obj 7 138 maxlib/scale \$1 \$2 0 0.5;
#X obj -30 165 maxlib/scale \$1 \$2 0 0.5;
#X obj -65 194 maxlib/scale \$1 \$2 0 0.5;
#X connect 0 0 11 0;
#X connect 0 1 12 0;
#X connect 0 2 13 0;
#X connect 0 3 14 0;
#X connect 0 4 18 0;
#X connect 0 5 17 0;
#X connect 0 6 16 0;
#X connect 0 7 15 0;
#X connect 1 0 3 0;
#X connect 2 0 0 0;
#X connect 4 0 5 0;
#X connect 4 1 6 0;
#X connect 4 2 7 0;
#X connect 4 3 8 0;
#X connect 4 4 9 0;
#X connect 4 5 10 0;
#X connect 11 0 4 0;
#X connect 11 0 1 0;
#X connect 12 0 4 1;
#X connect 12 0 1 1;
#X connect 13 0 4 2;
#X connect 13 0 1 2;
#X connect 14 0 4 3;
#X connect 14 0 1 3;
#X connect 15 0 4 7;
#X connect 16 0 4 6;
#X connect 17 0 4 5;
#X connect 17 0 1 5;
#X connect 18 0 4 4;
#X connect 18 0 1 4;
