#N canvas 597 22 612 544 10;
#X obj -207 -391 vsl 15 128 0 0.5 0 0 empty empty empty 0 -9 0 10 -262144
-1 -1 0 1;
#X obj -208 -134 maxlib/scale 0 0.5 0 4000;
#X floatatom -186 -297 5 0 0 0 - - -;
#X floatatom -187 -393 5 0 0 0 - - -;
#X obj -187 -275 tgl 15 0 empty empty empty 17 7 0 10 -262144 -1 -1
0 1;
#X obj -208 -161 moses;
#X obj -245 -161 value;
#X obj -197 -192 != 1;
#X obj -166 -191 sel 0;
#X text -167 -276 mute;
#X obj -133 -237 loadbang;
#X msg -132 -214 0;
#X obj -208 -106 outlet;
#X obj -207 -430 inlet;
#X obj -154 -451 loadbang;
#X msg -154 -430 0.5;
#X msg -238 -429 0;
#X text -149 -393;
#X text -147 -298;
#X connect 0 0 5 0;
#X connect 0 0 6 0;
#X connect 1 0 12 0;
#X connect 2 0 1 3;
#X connect 3 0 1 4;
#X connect 4 0 7 0;
#X connect 4 0 8 0;
#X connect 5 0 1 0;
#X connect 6 0 1 0;
#X connect 7 0 5 1;
#X connect 7 0 12 0;
#X connect 8 0 6 0;
#X connect 10 0 11 0;
#X connect 11 0 7 0;
#X connect 13 0 0 0;
#X connect 14 0 15 0;
#X connect 14 0 16 0;
#X connect 15 0 3 0;
#X connect 16 0 0 0;
#X coords 0 0 1 1 75 150 2 -212 -400;
