#N canvas 0 22 794 566 10;
#X obj 274 293 osc~;
#X obj 320 294 osc~;
#X obj 375 293 osc~;
#X obj 268 237 mtof;
#X obj 317 236 mtof;
#X obj 371 237 mtof;
#X msg 263 196 69;
#X msg 314 199 72;
#X msg 376 196 76;
#X obj 112 292 osc~;
#X obj 158 293 osc~;
#X obj 213 292 osc~;
#X obj 106 236 mtof;
#X obj 155 235 mtof;
#X obj 209 236 mtof;
#X msg 101 195 33;
#X msg 152 198 52;
#X msg 214 195 57;
#X obj 234 137 loadbang;
#X text 45 195 A Minor;
#X obj 118 420 outlet~;
#X obj 310 420 outlet~;
#X obj 426 196 inlet;
#X obj 466 196 inlet;
#X obj 505 197 inlet;
#X obj 545 197 inlet;
#X obj 582 198 inlet;
#X obj 622 196 inlet;
#X obj 383 342 *~ 0;
#X obj 323 342 *~ 0;
#X obj 267 342 *~ 0;
#X obj 220 342 *~ 0;
#X obj 161 341 *~ 0;
#X obj 106 341 *~ 0;
#X connect 0 0 30 0;
#X connect 1 0 29 0;
#X connect 2 0 28 0;
#X connect 3 0 0 0;
#X connect 4 0 1 0;
#X connect 5 0 2 0;
#X connect 6 0 3 0;
#X connect 7 0 4 0;
#X connect 8 0 5 0;
#X connect 9 0 33 0;
#X connect 10 0 32 0;
#X connect 11 0 31 0;
#X connect 12 0 9 0;
#X connect 13 0 10 0;
#X connect 14 0 11 0;
#X connect 15 0 12 0;
#X connect 16 0 13 0;
#X connect 17 0 14 0;
#X connect 18 0 6 0;
#X connect 18 0 7 0;
#X connect 18 0 8 0;
#X connect 18 0 15 0;
#X connect 18 0 16 0;
#X connect 18 0 17 0;
#X connect 22 0 33 1;
#X connect 23 0 32 1;
#X connect 24 0 31 1;
#X connect 25 0 30 1;
#X connect 26 0 29 1;
#X connect 27 0 28 1;
#X connect 28 0 20 0;
#X connect 28 0 21 0;
#X connect 29 0 20 0;
#X connect 29 0 21 0;
#X connect 30 0 20 0;
#X connect 30 0 21 0;
#X connect 31 0 20 0;
#X connect 31 0 21 0;
#X connect 32 0 20 0;
#X connect 32 0 21 0;
#X connect 33 0 20 0;
#X connect 33 0 21 0;
