#N canvas 144 22 692 338 10;
#X obj -115 66 noise~;
#X obj -115 102 bp~ 100 1;
#X obj -45 100 adsr~ 1 100 200 50 300;
#X obj -90 141 *~;
#X obj 100 64 noise~;
#X obj 174 100 adsr~ 1 100 200 50 300;
#X obj 99 136 *~;
#X obj 318 67 noise~;
#X obj 319 98 bp~ 100 1;
#X obj 322 129 *~;
#X obj 368 67 adsr~ 1 100 200 50 300;
#X obj -64 38 inlet;
#X obj 172 39 inlet;
#X obj 356 43 inlet;
#X obj 94 257 outlet~;
#X obj 93 191 *~ 0.3;
#X obj 94 224 hip~ 100;
#X obj 100 100 bp~ 200 1;
#X connect 0 0 1 0;
#X connect 1 0 3 0;
#X connect 2 0 3 1;
#X connect 3 0 15 0;
#X connect 4 0 17 0;
#X connect 5 0 6 1;
#X connect 6 0 15 0;
#X connect 7 0 8 0;
#X connect 8 0 9 0;
#X connect 9 0 15 0;
#X connect 10 0 9 1;
#X connect 11 0 2 0;
#X connect 11 0 1 2;
#X connect 12 0 5 0;
#X connect 13 0 10 0;
#X connect 13 0 8 2;
#X connect 15 0 16 0;
#X connect 16 0 14 0;
#X connect 17 0 6 0;
