#N canvas 0 22 226 334 10;
#X obj 54 46 phasor~;
#X obj 54 74 clip~ 0.2 0.5;
#X obj 55 103 cos~;
#X obj 55 132 clip~ -0.8 -0.2;
#X obj 56 163 cos~;
#X obj 57 191 cos~;
#X obj 58 218 -~ 0.4;
#X obj 58 246 cos~;
#X obj 57 275 outlet~;
#X obj 54 12 inlet~;
#X connect 0 0 1 0;
#X connect 1 0 2 0;
#X connect 2 0 3 0;
#X connect 3 0 4 0;
#X connect 4 0 5 0;
#X connect 5 0 6 0;
#X connect 6 0 7 0;
#X connect 7 0 8 0;
#X connect 9 0 0 0;
