#N canvas 0 0 1012 175 10;
#X obj 6 133 outlet;
#X obj 71 135 outlet;
#X obj 137 131 outlet;
#X obj 201 130 outlet;
#X obj 265 131 outlet;
#X obj 321 134 outlet;
#X obj 790 131 outlet;
#X obj 370 136 outlet;
#X obj 494 136 outlet;
#X obj 545 138 outlet;
#X obj 605 140 outlet;
#X obj 429 133 outlet;
#X obj 669 134 outlet;
#X obj 727 132 outlet;
#X obj 851 130 outlet;
#X obj 926 128 outlet;
#X obj 7 19 ctlin 1;
#X obj 71 20 ctlin 2;
#X obj 137 21 ctlin 3;
#X obj 201 23 ctlin 4;
#X obj 264 21 ctlin 5;
#X obj 316 21 ctlin 6;
#X obj 371 19 ctlin 7;
#X obj 430 19 ctlin 8;
#X obj 491 19 ctlin 9;
#X obj 547 20 ctlin 10;
#X obj 607 20 ctlin 11;
#X obj 670 17 ctlin 12;
#X obj 728 15 ctlin 13;
#X obj 791 14 ctlin 14;
#X obj 852 13 ctlin 15;
#X obj 926 14 ctlin 16;
#X obj 6 59 prepend 0;
#X obj 72 57 prepend 1;
#X obj 138 59 prepend 2;
#X obj 201 62 prepend 3;
#X obj 265 66 prepend 4;
#X obj 320 93 prepend 5;
#X obj 372 65 prepend 6;
#X obj 428 93 prepend 7;
#X obj 491 60 prepend 8;
#X obj 545 90 prepend 9;
#X obj 610 59 prepend 10;
#X obj 670 85 prepend 11;
#X obj 731 53 prepend 12;
#X obj 791 85 prepend 13;
#X obj 852 56 prepend 14;
#X obj 926 69 prepend 15;
#X connect 16 0 32 0;
#X connect 17 0 33 0;
#X connect 18 0 34 0;
#X connect 19 0 35 0;
#X connect 20 0 36 0;
#X connect 21 0 37 0;
#X connect 22 0 38 0;
#X connect 23 0 39 0;
#X connect 24 0 40 0;
#X connect 25 0 41 0;
#X connect 26 0 42 0;
#X connect 27 0 43 0;
#X connect 28 0 44 0;
#X connect 29 0 45 0;
#X connect 30 0 46 0;
#X connect 31 0 47 0;
#X connect 32 0 0 0;
#X connect 33 0 1 0;
#X connect 34 0 2 0;
#X connect 35 0 3 0;
#X connect 36 0 4 0;
#X connect 37 0 5 0;
#X connect 38 0 7 0;
#X connect 39 0 11 0;
#X connect 40 0 8 0;
#X connect 41 0 9 0;
#X connect 42 0 10 0;
#X connect 43 0 12 0;
#X connect 44 0 13 0;
#X connect 45 0 6 0;
#X connect 46 0 14 0;
#X connect 47 0 15 0;
