#N canvas 564 22 713 750 10;
#X obj 233 414 * 8;
#X obj 208 413 * 7;
#X obj 157 411 * 6;
#X obj 183 412 * 5;
#X obj 133 410 * 4;
#X obj 106 411 * 3;
#X obj 78 412 * 2;
#X obj 50 413 * 1;
#X obj 13 491 osc~;
#X obj 59 492 osc~;
#X obj 99 493 osc~;
#X obj 140 496 osc~;
#X obj 189 500 osc~;
#X obj 230 503 osc~;
#X obj 268 503 osc~;
#X floatatom 43 349 5 0 0 0 - - -;
#X floatatom 17 452 5 0 0 0 - - -;
#X floatatom 52 450 5 0 0 0 - - -;
#X floatatom 87 453 5 0 0 0 - - -;
#X floatatom 122 456 5 0 0 0 - - -;
#X floatatom 157 456 5 0 0 0 - - -;
#X floatatom 192 457 5 0 0 0 - - -;
#X floatatom 230 457 5 0 0 0 - - -;
#X floatatom 266 458 5 0 0 0 - - -;
#X obj 306 503 osc~;
#X obj 316 555 *~ 0.1;
#X obj 270 555 *~ 0.2;
#X obj 226 555 *~ 0.3;
#X obj 181 555 *~ 0.3;
#X obj 137 555 *~ 0.4;
#X obj 94 555 *~ 0.5;
#X obj 47 555 *~ 0.7;
#X obj 13 555 *~ 1;
#N canvas 0 22 450 300 (subpatch) 0;
#X array partials 8 float 3;
#A 0 0.74286 0.642859 0.578573 0.578573 0.578573 0.578573 0.57143 0.57143
;
#X coords 0 1 8 0 200 140 1;
#X restore 34 142 graph;
#X obj 128 661 output~;
#N canvas 0 22 450 300 (subpatch) 0;
#X array phase 8 float 5;
#A 0 1.01428 0.999998 0.928569 0.842855 0.642856 0.299999 -0.214285
-0.357142;
#X coords 0 1 7 -1 200 140 1;
#X restore 278 145 graph;
#X obj 253 262 bng 15 250 50 0 empty empty empty 17 7 0 10 -262144
-1 -1;
#X obj 43 319 r frequency;
#X floatatom 495 142 10 0 0 3 frequency - frequency;
#X obj 492 89 loadbang;
#X msg 494 114 120;
#N canvas 0 22 531 289 partials 0;
#X obj 188 95 tabread partials;
#X obj 188 69 count 8;
#X obj 52 96 route 0 1 2 3 4 5 6 7;
#X obj 48 155 f;
#X obj 77 155 f;
#X obj 106 155 f;
#X obj 133 155 f;
#X obj 159 155 f;
#X obj 186 155 f;
#X obj 215 155 f;
#X obj 241 155 f;
#X obj 188 43 uzi 8;
#X obj -10 218 outlet;
#X obj 35 220 outlet;
#X obj 80 217 outlet;
#X obj 124 219 outlet;
#X obj 165 217 outlet;
#X obj 207 218 outlet;
#X obj 251 217 outlet;
#X obj 298 216 outlet;
#X obj 192 19 inlet;
#X connect 0 0 3 1;
#X connect 0 0 4 1;
#X connect 0 0 5 1;
#X connect 0 0 6 1;
#X connect 0 0 7 1;
#X connect 0 0 8 1;
#X connect 0 0 9 1;
#X connect 0 0 10 1;
#X connect 1 0 0 0;
#X connect 1 0 2 0;
#X connect 2 0 3 0;
#X connect 2 1 4 0;
#X connect 2 2 5 0;
#X connect 2 3 6 0;
#X connect 2 4 7 0;
#X connect 2 5 8 0;
#X connect 2 6 9 0;
#X connect 2 7 10 0;
#X connect 3 0 12 0;
#X connect 4 0 13 0;
#X connect 5 0 14 0;
#X connect 6 0 15 0;
#X connect 7 0 16 0;
#X connect 8 0 17 0;
#X connect 9 0 18 0;
#X connect 10 0 19 0;
#X connect 11 0 1 0;
#X connect 20 0 11 0;
#X restore 11 292 pd partials;
#X obj 10 264 bng 15 250 50 0 empty empty empty 17 7 0 10 -262144 -1
-1;
#N canvas 0 22 420 339 phase 0;
#X obj 200 113 count 8;
#X obj 64 140 route 0 1 2 3 4 5 6 7;
#X obj 60 199 f;
#X obj 89 199 f;
#X obj 118 199 f;
#X obj 145 199 f;
#X obj 171 199 f;
#X obj 198 199 f;
#X obj 227 199 f;
#X obj 253 199 f;
#X obj 200 87 uzi 8;
#X obj 200 139 tabread phase;
#X obj 200 55 inlet;
#X obj 23 246 outlet;
#X obj 69 244 outlet;
#X obj 118 244 outlet;
#X obj 163 245 outlet;
#X obj 209 246 outlet;
#X obj 261 245 outlet;
#X obj 307 241 outlet;
#X obj 355 244 outlet;
#X connect 0 0 1 0;
#X connect 0 0 11 0;
#X connect 1 0 2 0;
#X connect 1 1 3 0;
#X connect 1 2 4 0;
#X connect 1 3 5 0;
#X connect 1 4 6 0;
#X connect 1 5 7 0;
#X connect 1 6 8 0;
#X connect 1 7 9 0;
#X connect 2 0 13 0;
#X connect 3 0 14 0;
#X connect 4 0 15 0;
#X connect 5 0 16 0;
#X connect 6 0 17 0;
#X connect 7 0 18 0;
#X connect 8 0 19 0;
#X connect 9 0 20 0;
#X connect 10 0 0 0;
#X connect 11 0 2 1;
#X connect 11 0 3 1;
#X connect 11 0 4 1;
#X connect 11 0 5 1;
#X connect 11 0 6 1;
#X connect 11 0 7 1;
#X connect 11 0 8 1;
#X connect 11 0 9 1;
#X connect 12 0 10 0;
#X restore 254 293 pd phase;
#N canvas 0 22 288 206 scale 0;
#X obj 53 31 inlet;
#X obj 49 66 maxlib/scale 0 0.5 0 1;
#X obj 51 97 outlet;
#X connect 0 0 1 0;
#X connect 1 0 2 0;
#X restore 309 411 pd scale;
#N canvas 0 22 288 206 scale 0;
#X obj 53 31 inlet;
#X obj 49 66 maxlib/scale 0 0.5 0 1;
#X obj 51 97 outlet;
#X connect 0 0 1 0;
#X connect 1 0 2 0;
#X restore 371 411 pd scale;
#N canvas 0 22 288 206 scale 0;
#X obj 53 31 inlet;
#X obj 49 66 maxlib/scale 0 0.5 0 1;
#X obj 51 97 outlet;
#X connect 0 0 1 0;
#X connect 1 0 2 0;
#X restore 426 411 pd scale;
#N canvas 0 22 288 206 scale 0;
#X obj 53 31 inlet;
#X obj 49 66 maxlib/scale 0 0.5 0 1;
#X obj 51 97 outlet;
#X connect 0 0 1 0;
#X connect 1 0 2 0;
#X restore 488 413 pd scale;
#N canvas 0 22 288 206 scale 0;
#X obj 53 31 inlet;
#X obj 49 66 maxlib/scale 0 0.5 0 1;
#X obj 51 97 outlet;
#X connect 0 0 1 0;
#X connect 1 0 2 0;
#X restore 546 414 pd scale;
#N canvas 0 22 288 206 scale 0;
#X obj 53 31 inlet;
#X obj 49 66 maxlib/scale 0 0.5 0 1;
#X obj 51 97 outlet;
#X connect 0 0 1 0;
#X connect 1 0 2 0;
#X restore 608 414 pd scale;
#N canvas 0 22 450 300 selector 0;
#X obj 108 209 outlet;
#X floatatom 101 176 5 0 0 0 - - -;
#X obj 100 141 switch;
#X obj 85 105 + 1;
#X obj 60 41 inlet;
#X obj 109 40 inlet;
#X obj 151 39 inlet;
#X connect 1 0 0 0;
#X connect 2 0 1 0;
#X connect 3 0 2 0;
#X connect 4 0 3 0;
#X connect 5 0 2 1;
#X connect 6 0 2 2;
#X restore 574 513 pd selector;
#X obj 407 331 arduino-input;
#X obj 130 623 *~ 1;
#X floatatom 611 451 5 0 0 0 - - -;
#X connect 0 0 23 0;
#X connect 1 0 22 0;
#X connect 2 0 20 0;
#X connect 3 0 21 0;
#X connect 4 0 19 0;
#X connect 5 0 18 0;
#X connect 6 0 17 0;
#X connect 7 0 16 0;
#X connect 8 0 32 0;
#X connect 9 0 31 0;
#X connect 10 0 30 0;
#X connect 11 0 29 0;
#X connect 12 0 28 0;
#X connect 13 0 27 0;
#X connect 14 0 26 0;
#X connect 15 0 7 0;
#X connect 15 0 6 0;
#X connect 15 0 5 0;
#X connect 15 0 4 0;
#X connect 15 0 2 0;
#X connect 15 0 3 0;
#X connect 15 0 1 0;
#X connect 15 0 0 0;
#X connect 16 0 8 0;
#X connect 17 0 9 0;
#X connect 18 0 10 0;
#X connect 19 0 11 0;
#X connect 20 0 12 0;
#X connect 21 0 13 0;
#X connect 22 0 14 0;
#X connect 23 0 24 0;
#X connect 24 0 25 0;
#X connect 25 0 52 0;
#X connect 26 0 52 0;
#X connect 27 0 52 0;
#X connect 28 0 52 0;
#X connect 29 0 52 0;
#X connect 30 0 52 0;
#X connect 31 0 52 0;
#X connect 32 0 52 0;
#X connect 36 0 43 0;
#X connect 37 0 15 0;
#X connect 39 0 40 0;
#X connect 40 0 38 0;
#X connect 42 0 41 0;
#X connect 47 0 32 1;
#X connect 49 0 53 0;
#X connect 49 0 31 1;
#X connect 51 0 44 0;
#X connect 51 1 45 0;
#X connect 51 2 46 0;
#X connect 51 3 47 0;
#X connect 51 4 48 0;
#X connect 51 5 49 0;
#X connect 52 0 34 0;
#X connect 52 0 34 1;
