#N canvas 4 22 1276 756 10;
#X obj 246 119 * 8;
#X obj 221 118 * 7;
#X obj 170 116 * 6;
#X obj 196 117 * 5;
#X obj 146 115 * 4;
#X obj 119 116 * 3;
#X obj 91 117 * 2;
#X obj 63 118 * 1;
#X obj 26 196 osc~;
#X obj 72 197 osc~;
#X obj 112 198 osc~;
#X obj 153 201 osc~;
#X obj 202 205 osc~;
#X obj 243 208 osc~;
#X obj 281 208 osc~;
#X floatatom 149 49 5 0 0 0 - - -;
#X floatatom 30 157 5 0 0 0 - - -;
#X floatatom 65 155 5 0 0 0 - - -;
#X floatatom 100 158 5 0 0 0 - - -;
#X floatatom 135 161 5 0 0 0 - - -;
#X floatatom 170 161 5 0 0 0 - - -;
#X floatatom 205 162 5 0 0 0 - - -;
#X floatatom 243 162 5 0 0 0 - - -;
#X floatatom 279 163 5 0 0 0 - - -;
#X obj 319 208 osc~;
#X obj 329 259 *~ 0.1;
#X obj 283 261 *~ 0.2;
#X obj 239 263 *~ 0.3;
#X obj 194 264 *~ 0.3;
#X obj 148 264 *~ 0.4;
#X obj 107 264 *~ 0.5;
#X obj 60 262 *~ 0.7;
#X obj 26 260 *~ 1;
#X obj 158 373 *~ 0.4;
#X obj 157 409 dac~;
#X obj 378 249 sliderchannel;
#X connect 0 0 23 0;
#X connect 1 0 22 0;
#X connect 2 0 20 0;
#X connect 3 0 21 0;
#X connect 4 0 19 0;
#X connect 5 0 18 0;
#X connect 6 0 17 0;
#X connect 7 0 16 0;
#X connect 8 0 32 0;
#X connect 9 0 31 0;
#X connect 10 0 30 0;
#X connect 11 0 29 0;
#X connect 12 0 28 0;
#X connect 13 0 27 0;
#X connect 14 0 26 0;
#X connect 15 0 7 0;
#X connect 15 0 6 0;
#X connect 15 0 5 0;
#X connect 15 0 4 0;
#X connect 15 0 2 0;
#X connect 15 0 3 0;
#X connect 15 0 1 0;
#X connect 15 0 0 0;
#X connect 16 0 8 0;
#X connect 17 0 9 0;
#X connect 18 0 10 0;
#X connect 19 0 11 0;
#X connect 20 0 12 0;
#X connect 21 0 13 0;
#X connect 22 0 14 0;
#X connect 23 0 24 0;
#X connect 24 0 25 0;
#X connect 25 0 33 0;
#X connect 26 0 33 0;
#X connect 27 0 33 0;
#X connect 28 0 33 0;
#X connect 29 0 33 0;
#X connect 30 0 33 0;
#X connect 31 0 33 0;
#X connect 32 0 33 0;
#X connect 33 0 34 0;
#X connect 33 0 34 1;
#X connect 35 0 33 1;
