#N canvas 1 22 1061 752 10;
#X obj 239 259 * 8;
#X obj 214 258 * 7;
#X obj 163 256 * 6;
#X obj 189 257 * 5;
#X obj 139 255 * 4;
#X obj 112 256 * 3;
#X obj 84 257 * 2;
#X obj 56 258 * 1;
#X obj 19 336 osc~;
#X obj 65 337 osc~;
#X obj 105 338 osc~;
#X obj 146 341 osc~;
#X obj 195 345 osc~;
#X obj 236 348 osc~;
#X obj 274 348 osc~;
#X floatatom 142 189 5 0 0 0 - - -;
#X floatatom 23 297 5 0 0 0 - - -;
#X floatatom 58 295 5 0 0 0 - - -;
#X floatatom 93 298 5 0 0 0 - - -;
#X floatatom 128 301 5 0 0 0 - - -;
#X floatatom 163 301 5 0 0 0 - - -;
#X floatatom 198 302 5 0 0 0 - - -;
#X floatatom 236 302 5 0 0 0 - - -;
#X floatatom 272 303 5 0 0 0 - - -;
#X obj 312 348 osc~;
#X obj 322 399 *~ 0.1;
#X obj 276 401 *~ 0.2;
#X obj 232 403 *~ 0.3;
#X obj 187 404 *~ 0.3;
#X obj 141 404 *~ 0.4;
#X obj 100 404 *~ 0.5;
#X obj 53 402 *~ 0.7;
#X obj 19 400 *~ 1;
#N canvas 0 22 450 300 (subpatch) 0;
#X array partials 8 float 5;
#A 0 0.942857 0.74286 0.614288 0.478573 0.342858 0.342858 0.735714
0.792857;
#X coords 0 1 7 0 200 140 1;
#X restore 19 25 graph;
#X obj 490 288 tabread partials;
#X obj 134 506 output~;
#X obj 137 471 *~ 0.4;
#X obj 490 262 count 8;
#X obj 354 289 route 0 1 2 3 4 5 6 7;
#X obj 350 348 f;
#X obj 379 348 f;
#X obj 408 348 f;
#X obj 435 348 f;
#X obj 461 348 f;
#X obj 488 348 f;
#X obj 517 348 f;
#X obj 543 348 f;
#X obj 490 236 uzi 8;
#X obj 490 213 bng 15 250 50 0 empty empty empty 17 7 0 10 -262144
-1 -1;
#N canvas 0 0 450 300 (subpatch) 0;
#X array phase 8 float 5;
#A 0 -1.12857 0.385713 0.399999 0.399999 0.399999 0.399999 0.399999
0.871427;
#X coords 0 1 7 -1 200 140 1;
#X restore 249 26 graph;
#X obj 609 65 count 8;
#X obj 473 92 route 0 1 2 3 4 5 6 7;
#X obj 469 151 f;
#X obj 498 151 f;
#X obj 527 151 f;
#X obj 554 151 f;
#X obj 580 151 f;
#X obj 607 151 f;
#X obj 636 151 f;
#X obj 662 151 f;
#X obj 609 39 uzi 8;
#X obj 609 16 bng 15 250 50 0 empty empty empty 17 7 0 10 -262144 -1
-1;
#X obj 609 91 tabread phase;
#X connect 0 0 23 0;
#X connect 1 0 22 0;
#X connect 2 0 20 0;
#X connect 3 0 21 0;
#X connect 4 0 19 0;
#X connect 5 0 18 0;
#X connect 6 0 17 0;
#X connect 7 0 16 0;
#X connect 8 0 32 0;
#X connect 9 0 31 0;
#X connect 10 0 30 0;
#X connect 11 0 29 0;
#X connect 12 0 28 0;
#X connect 13 0 27 0;
#X connect 14 0 26 0;
#X connect 15 0 7 0;
#X connect 15 0 6 0;
#X connect 15 0 5 0;
#X connect 15 0 4 0;
#X connect 15 0 2 0;
#X connect 15 0 3 0;
#X connect 15 0 1 0;
#X connect 15 0 0 0;
#X connect 16 0 8 0;
#X connect 17 0 9 0;
#X connect 18 0 10 0;
#X connect 19 0 11 0;
#X connect 20 0 12 0;
#X connect 21 0 13 0;
#X connect 22 0 14 0;
#X connect 23 0 24 0;
#X connect 24 0 25 0;
#X connect 25 0 36 0;
#X connect 26 0 36 0;
#X connect 27 0 36 0;
#X connect 28 0 36 0;
#X connect 29 0 36 0;
#X connect 30 0 36 0;
#X connect 31 0 36 0;
#X connect 32 0 36 0;
#X connect 34 0 39 1;
#X connect 34 0 40 1;
#X connect 34 0 41 1;
#X connect 34 0 42 1;
#X connect 34 0 43 1;
#X connect 34 0 44 1;
#X connect 34 0 45 1;
#X connect 34 0 46 1;
#X connect 36 0 35 0;
#X connect 36 0 35 1;
#X connect 37 0 34 0;
#X connect 37 0 38 0;
#X connect 38 0 39 0;
#X connect 38 1 40 0;
#X connect 38 2 41 0;
#X connect 38 3 42 0;
#X connect 38 4 43 0;
#X connect 38 5 44 0;
#X connect 38 6 45 0;
#X connect 38 7 46 0;
#X connect 39 0 32 1;
#X connect 40 0 31 1;
#X connect 41 0 30 1;
#X connect 42 0 29 1;
#X connect 43 0 28 1;
#X connect 44 0 27 1;
#X connect 45 0 26 1;
#X connect 46 0 25 1;
#X connect 47 0 37 0;
#X connect 48 0 47 0;
#X connect 50 0 51 0;
#X connect 50 0 62 0;
#X connect 51 0 52 0;
#X connect 51 1 53 0;
#X connect 51 2 54 0;
#X connect 51 3 55 0;
#X connect 51 4 56 0;
#X connect 51 5 57 0;
#X connect 51 6 58 0;
#X connect 51 7 59 0;
#X connect 52 0 8 1;
#X connect 53 0 9 1;
#X connect 54 0 10 1;
#X connect 55 0 11 1;
#X connect 56 0 12 1;
#X connect 57 0 13 1;
#X connect 58 0 14 1;
#X connect 59 0 24 1;
#X connect 60 0 50 0;
#X connect 61 0 60 0;
#X connect 62 0 52 1;
#X connect 62 0 53 1;
#X connect 62 0 54 1;
#X connect 62 0 55 1;
#X connect 62 0 56 1;
#X connect 62 0 57 1;
#X connect 62 0 58 1;
#X connect 62 0 59 1;
