#N canvas 298 22 600 642 10;
#X obj 129 592 dac~;
#X obj 132 540 *~ 0.4;
#X obj 228 263 osc~ 800;
#X obj 218 240 osc~ 700;
#X obj 209 217 osc~ 600;
#X obj 199 196 osc~ 500;
#X obj 183 176 osc~ 400;
#X obj 171 152 osc~ 300;
#X obj 148 131 osc~ 200;
#X obj 123 106 osc~ 100;
#X obj 121 192 *~ 1;
#X obj 213 331 *~ 0.1;
#X obj 197 313 *~ 0.2;
#X obj 184 295 *~ 0.3;
#X obj 169 275 *~ 0.3;
#X obj 156 255 *~ 0.4;
#X obj 143 235 *~ 0.5;
#X obj 133 212 *~ 0.7;
#X obj 229 8 sliderchannel;
#X obj 292 356 sliderchannel;
#X connect 1 0 0 0;
#X connect 1 0 0 1;
#X connect 2 0 11 0;
#X connect 3 0 12 0;
#X connect 4 0 13 0;
#X connect 5 0 14 0;
#X connect 6 0 15 0;
#X connect 7 0 16 0;
#X connect 8 0 17 0;
#X connect 9 0 10 0;
#X connect 10 0 1 0;
#X connect 11 0 1 0;
#X connect 12 0 1 0;
#X connect 13 0 1 0;
#X connect 14 0 1 0;
#X connect 15 0 1 0;
#X connect 16 0 1 0;
#X connect 17 0 1 0;
#X connect 18 0 6 1;
#X connect 19 0 1 1;
