#N canvas 309 22 955 704 10;
#X obj 65 84 emg is totally awesome;
#X obj 113 438 three_chord;
#X obj 276 585 output~;
#X obj 113 491 *~ 0;
#X obj 176 492 *~ 0;
#X obj 257 439 pulsetrain;
#X obj 257 496 *~ 0;
#X obj 134 464 r bus1;
#X obj 197 466 r bus1;
#X obj 315 494 *~ 0;
#X obj 592 576 s bus1;
#X obj 689 576 s bus2;
#X obj 278 464 r bus2;
#X obj 336 464 r bus2;
#X obj 388 496 *~ 0;
#X obj 476 497 *~ 0;
#X obj 409 464 r bus3;
#X obj 497 467 r bus3;
#X obj 389 438 particlechamber;
#X obj 781 575 s bus3;
#X text 735 352 particlechamber;
#X obj 713 355 bng 15 250 50 0 empty empty empty 17 7 0 10 -262144
-1 -1;
#X obj 526 237 sliderchannel;
#X obj 656 353 bng 15 250 50 0 empty empty empty 17 7 0 10 -262144
-1 -1;
#X text 674 351 init;
#X obj 142 268 cnv 15 20 60 empty empty empty 20 12 0 14 -159808 -66577
0;
#X obj 225 267 cnv 15 20 60 empty empty empty 20 12 0 14 -258113 -66577
0;
#X obj 309 267 cnv 15 20 60 empty empty empty 20 12 0 14 -257985 -66577
0;
#X obj 395 267 cnv 15 20 60 empty empty empty 20 12 0 14 -4032 -66577
0;
#X obj 296 208 r preset-2;
#X obj 212 211 r preset-1;
#X obj 126 210 r preset-0;
#X obj 114 236 sliderchannel;
#X obj 196 236 sliderchannel;
#X obj 280 236 sliderchannel;
#X obj 363 237 sliderchannel;
#X obj 445 238 sliderchannel;
#X obj 592 414 sliderchannel;
#X obj 689 414 sliderchannel;
#X obj 781 414 sliderchannel;
#X obj 378 209 r preset-3;
#X obj 461 207 r preset-4;
#X obj 551 207 r preset-5;
#X obj 65 209 s gain-1;
#X obj 163 534 crossfade;
#N canvas 0 22 304 356 presets 0;
#X text 136 51 voices;
#X text 133 105 asynch;
#X text 144 160 jitter;
#X text 160 217 length;
#X text 151 272 envelope;
#X msg 95 52 4 32;
#X obj 96 77 s preset-1;
#X msg 97 161 0 500;
#X msg 97 218 100 5000;
#X msg 99 271 10 200;
#X msg 22 56 0 0.5;
#X obj 96 131 s preset-2;
#X obj 97 187 s preset-3;
#X obj 97 243 s preset-4;
#X obj 99 298 s preset-5;
#X obj 22 26 inlet;
#X obj 67 25 inlet;
#X msg 96 106 90 5;
#X connect 5 0 6 0;
#X connect 7 0 12 0;
#X connect 8 0 13 0;
#X connect 9 0 14 0;
#X connect 10 0 6 0;
#X connect 10 0 11 0;
#X connect 10 0 12 0;
#X connect 10 0 13 0;
#X connect 10 0 14 0;
#X connect 15 0 10 0;
#X connect 16 0 5 0;
#X connect 16 0 17 0;
#X connect 16 0 7 0;
#X connect 16 0 8 0;
#X connect 16 0 9 0;
#X connect 17 0 11 0;
#X restore 656 378 pd presets;
#X obj 661 307 hsl 128 15 0 100 0 0 empty empty empty -2 -8 0 10 -262144
-1 -1 385 1;
#X obj 658 279 r gain-1;
#X obj 378 597 recorder;
#X obj 475 269 cnv 15 20 60 empty empty empty 20 12 0 14 -228856 -66577
0;
#X floatatom 519 418 5 0 0 0 - - -;
#X obj 555 266 cnv 15 20 60 empty empty empty 20 12 0 14 -1 -66577
0;
#X connect 0 0 43 0;
#X connect 0 1 32 0;
#X connect 0 2 33 0;
#X connect 0 3 34 0;
#X connect 0 4 35 0;
#X connect 0 5 36 0;
#X connect 0 6 22 0;
#X connect 1 0 3 0;
#X connect 1 1 4 0;
#X connect 3 0 44 0;
#X connect 4 0 44 1;
#X connect 5 0 6 0;
#X connect 5 1 9 0;
#X connect 6 0 44 2;
#X connect 7 0 3 1;
#X connect 8 0 4 1;
#X connect 9 0 44 3;
#X connect 12 0 6 1;
#X connect 13 0 9 1;
#X connect 14 0 2 0;
#X connect 15 0 2 1;
#X connect 16 0 14 1;
#X connect 17 0 15 1;
#X connect 18 0 14 0;
#X connect 18 1 15 0;
#X connect 21 0 45 1;
#X connect 22 0 1 5;
#X connect 22 0 5 5;
#X connect 22 0 18 5;
#X connect 23 0 45 0;
#X connect 29 0 34 1;
#X connect 30 0 33 1;
#X connect 31 0 32 1;
#X connect 32 0 1 0;
#X connect 32 0 5 0;
#X connect 32 0 18 0;
#X connect 33 0 1 1;
#X connect 33 0 5 1;
#X connect 33 0 18 1;
#X connect 34 0 1 2;
#X connect 34 0 5 2;
#X connect 34 0 18 2;
#X connect 35 0 1 3;
#X connect 35 0 5 3;
#X connect 35 0 18 3;
#X connect 35 0 50 0;
#X connect 36 0 1 4;
#X connect 36 0 5 4;
#X connect 36 0 18 4;
#X connect 37 0 10 0;
#X connect 38 0 11 0;
#X connect 39 0 19 0;
#X connect 40 0 35 1;
#X connect 41 0 36 1;
#X connect 42 0 22 1;
#X connect 44 0 2 0;
#X connect 44 1 2 1;
#X connect 47 0 46 0;
