#N canvas 4 22 1276 756 10;
#X obj 326 110 emg is totally awesome;
#X obj 42 167 sliderchannel;
#X obj 155 168 sliderchannel;
#X obj 266 169 sliderchannel;
#X obj 377 170 sliderchannel;
#X obj 484 170 sliderchannel;
#X obj 593 171 sliderchannel;
#X obj 286 402 three_chord;
#X obj 348 677 output~;
#X msg 346 78 open 2;
#X msg 326 56 close;
#X obj 187 426 sliderchannel;
#X obj 479 419 sliderchannel;
#X obj 324 595 *~ 0;
#X obj 414 593 *~ 0;
#X obj 454 82 bng 15 250 50 0 empty empty empty 17 7 0 10 -262144 -1
-1;
#X obj 394 401 pulsetrain;
#X connect 0 0 1 0;
#X connect 0 1 2 0;
#X connect 0 2 3 0;
#X connect 0 3 4 0;
#X connect 0 4 5 0;
#X connect 0 5 6 0;
#X connect 1 0 7 0;
#X connect 1 0 16 0;
#X connect 2 0 7 1;
#X connect 2 0 16 1;
#X connect 3 0 7 2;
#X connect 3 0 16 2;
#X connect 4 0 7 3;
#X connect 4 0 16 3;
#X connect 5 0 7 4;
#X connect 5 0 16 4;
#X connect 6 0 7 5;
#X connect 6 0 16 5;
#X connect 7 0 13 0;
#X connect 7 1 14 0;
#X connect 9 0 0 0;
#X connect 10 0 0 0;
#X connect 11 0 13 1;
#X connect 12 0 14 1;
#X connect 13 0 8 0;
#X connect 13 0 8 1;
#X connect 14 0 8 0;
#X connect 14 0 8 1;
#X connect 15 0 0 1;
#X connect 16 0 13 0;
#X connect 16 1 14 0;
