#N canvas 560 22 712 584 10;
#N canvas 0 22 450 300 (subpatch) 0;
#X array test-zero 53390 float 2;
#X coords 0 1 53390 -1 50 50 1;
#X restore 64 391 graph;
#X obj 42 211 sliderchannel;
#X obj 21 370 *~ 0;
#X obj 224 480 output~;
#N canvas 254 22 450 300 zero 0;
#X obj 75 249 tabread4~ test-zero;
#X obj 32 67 soundfiler;
#X obj 73 174 phasor~ 0;
#X obj 75 201 *~ 0;
#X obj 74 225 +~ 1;
#X obj 39 150 /;
#X msg 12 116 44100;
#X obj 37 93 t b f f;
#X obj 36 16 inlet;
#X obj 74 277 outlet~;
#X msg 35 42 read -resize sounds/test-zero.wav test-zero;
#X connect 0 0 9 0;
#X connect 1 0 7 0;
#X connect 2 0 3 0;
#X connect 3 0 4 0;
#X connect 4 0 0 0;
#X connect 5 0 2 0;
#X connect 6 0 5 0;
#X connect 7 0 6 0;
#X connect 7 1 5 1;
#X connect 7 2 3 1;
#X connect 8 0 10 0;
#X connect 10 0 1 0;
#X restore 23 189 pd zero;
#N canvas 0 22 450 300 (subpatch) 0;
#X array test-one 44476 float 2;
#X coords 0 1 44476 -1 50 50 1;
#X restore 178 389 graph;
#X obj 157 211 sliderchannel;
#X obj 136 370 *~ 0;
#N canvas 0 22 450 300 one 0;
#X obj 32 67 soundfiler;
#X obj 73 174 phasor~ 0;
#X obj 75 201 *~ 0;
#X obj 74 225 +~ 1;
#X obj 39 150 /;
#X msg 12 116 44100;
#X obj 37 93 t b f f;
#X obj 36 16 inlet;
#X obj 74 277 outlet~;
#X obj 75 249 tabread4~ test-one;
#X msg 37 43 read -resize sounds/test-one.wav test-one;
#X connect 0 0 6 0;
#X connect 1 0 2 0;
#X connect 2 0 3 0;
#X connect 3 0 9 0;
#X connect 4 0 1 0;
#X connect 5 0 4 0;
#X connect 6 0 5 0;
#X connect 6 1 4 1;
#X connect 6 2 2 1;
#X connect 7 0 10 0;
#X connect 9 0 8 0;
#X connect 10 0 0 0;
#X restore 136 189 pd one;
#N canvas 0 22 450 300 (subpatch) 0;
#X array test-two 43029 float 2;
#X coords 0 1 43029 -1 50 50 1;
#X restore 280 390 graph;
#X obj 262 208 sliderchannel;
#X obj 241 367 *~ 0;
#N canvas 0 22 331 330 two 0;
#X obj 32 67 soundfiler;
#X obj 73 174 phasor~ 0;
#X obj 75 201 *~ 0;
#X obj 74 225 +~ 1;
#X obj 39 150 /;
#X msg 12 116 44100;
#X obj 37 93 t b f f;
#X obj 35 8 inlet;
#X obj 74 277 outlet~;
#X obj 75 248 tabread4~ test-two;
#X msg 30 39 read -resize sounds/test-two.wav test-two;
#X connect 0 0 6 0;
#X connect 1 0 2 0;
#X connect 2 0 3 0;
#X connect 3 0 9 0;
#X connect 4 0 1 0;
#X connect 5 0 4 0;
#X connect 6 0 5 0;
#X connect 6 1 4 1;
#X connect 6 2 2 1;
#X connect 7 0 10 0;
#X connect 9 0 8 0;
#X connect 10 0 0 0;
#X restore 240 188 pd two;
#N canvas 0 22 450 300 (subpatch) 0;
#X array test-three 46283 float 2;
#X coords 0 1 46283 -1 50 50 1;
#X restore 376 387 graph;
#X obj 364 209 sliderchannel;
#X obj 343 368 *~ 0;
#N canvas 0 22 331 330 three 0;
#X obj 32 67 soundfiler;
#X obj 73 174 phasor~ 0;
#X obj 75 201 *~ 0;
#X obj 74 225 +~ 1;
#X obj 39 150 /;
#X msg 12 116 44100;
#X obj 37 93 t b f f;
#X obj 35 8 inlet;
#X obj 74 277 outlet~;
#X msg 30 39 read -resize sounds/test-three.wav test-three;
#X obj 75 247 tabread4~ test-three;
#X connect 0 0 6 0;
#X connect 1 0 2 0;
#X connect 2 0 3 0;
#X connect 3 0 10 0;
#X connect 4 0 1 0;
#X connect 5 0 4 0;
#X connect 6 0 5 0;
#X connect 6 1 4 1;
#X connect 6 2 2 1;
#X connect 7 0 9 0;
#X connect 9 0 0 0;
#X connect 10 0 8 0;
#X restore 342 189 pd three;
#X msg 25 123 bang;
#N canvas 0 22 450 300 (subpatch) 0;
#X array test-four 44114 float 2;
#X coords 0 1 44114 -1 50 50 1;
#X restore 483 386 graph;
#X obj 467 207 sliderchannel;
#X obj 446 366 *~ 0;
#N canvas 0 22 331 330 four 0;
#X obj 32 67 soundfiler;
#X obj 73 174 phasor~ 0;
#X obj 75 201 *~ 0;
#X obj 74 225 +~ 1;
#X obj 39 150 /;
#X msg 12 116 44100;
#X obj 37 93 t b f f;
#X obj 35 8 inlet;
#X obj 74 277 outlet~;
#X msg 30 39 read -resize sounds/test-four.wav test-four;
#X obj 75 247 tabread4~ test-four;
#X connect 0 0 6 0;
#X connect 1 0 2 0;
#X connect 2 0 3 0;
#X connect 3 0 10 0;
#X connect 4 0 1 0;
#X connect 5 0 4 0;
#X connect 6 0 5 0;
#X connect 6 1 4 1;
#X connect 6 2 2 1;
#X connect 7 0 9 0;
#X connect 9 0 0 0;
#X connect 10 0 8 0;
#X restore 445 187 pd four;
#N canvas 0 22 450 300 (subpatch) 0;
#X array test-five 48091 float 2;
#X coords 0 1 48091 -1 50 50 1;
#X restore 591 384 graph;
#X obj 571 208 sliderchannel;
#X obj 550 367 *~ 0;
#N canvas 0 22 331 330 five 0;
#X obj 32 67 soundfiler;
#X obj 73 174 phasor~ 0;
#X obj 75 201 *~ 0;
#X obj 74 225 +~ 1;
#X obj 39 150 /;
#X msg 12 116 44100;
#X obj 37 93 t b f f;
#X obj 35 8 inlet;
#X obj 74 277 outlet~;
#X msg 31 39 read -resize sounds/test-five.wav test-five;
#X obj 75 247 tabread4~ test-five;
#X connect 0 0 6 0;
#X connect 1 0 2 0;
#X connect 2 0 3 0;
#X connect 3 0 10 0;
#X connect 4 0 1 0;
#X connect 5 0 4 0;
#X connect 6 0 5 0;
#X connect 6 1 4 1;
#X connect 6 2 2 1;
#X connect 7 0 9 0;
#X connect 9 0 0 0;
#X connect 10 0 8 0;
#X restore 549 188 pd five;
#X obj 141 41 emg is totally awesome;
#X obj 67 121 t b b;
#X obj 67 91 loadbang;
#X connect 1 0 2 1;
#X connect 2 0 3 0;
#X connect 2 0 3 1;
#X connect 4 0 2 0;
#X connect 6 0 7 1;
#X connect 7 0 3 0;
#X connect 7 0 3 1;
#X connect 8 0 7 0;
#X connect 10 0 11 1;
#X connect 11 0 3 0;
#X connect 11 0 3 1;
#X connect 12 0 11 0;
#X connect 14 0 15 1;
#X connect 15 0 3 0;
#X connect 15 0 3 1;
#X connect 16 0 15 0;
#X connect 17 0 4 0;
#X connect 17 0 8 0;
#X connect 17 0 12 0;
#X connect 17 0 16 0;
#X connect 17 0 21 0;
#X connect 17 0 25 0;
#X connect 19 0 20 1;
#X connect 20 0 3 0;
#X connect 20 0 3 1;
#X connect 21 0 20 0;
#X connect 23 0 24 1;
#X connect 24 0 3 0;
#X connect 24 0 3 1;
#X connect 25 0 24 0;
#X connect 26 1 1 0;
#X connect 26 2 6 0;
#X connect 26 3 10 0;
#X connect 26 4 14 0;
#X connect 26 5 19 0;
#X connect 26 6 23 0;
#X connect 27 0 25 0;
#X connect 27 0 21 0;
#X connect 27 0 16 0;
#X connect 27 0 12 0;
#X connect 27 0 8 0;
#X connect 27 0 4 0;
#X connect 28 0 27 0;
