#N canvas 4 22 1276 756 10;
#N canvas 0 22 450 300 (subpatch) 0;
#X array test-zero 53390 float 2;
#X coords 0 1 53390 -1 50 50 1;
#X restore 196 193 graph;
#X obj 81 183 sliderchannel;
#X obj 60 342 *~ 0;
#X obj 541 502 output~;
#N canvas 254 22 450 300 zero 0;
#X obj 75 249 tabread4~ test-zero;
#X obj 32 67 soundfiler;
#X obj 73 174 phasor~ 0;
#X obj 75 201 *~ 0;
#X obj 74 225 +~ 1;
#X obj 39 150 /;
#X msg 12 116 44100;
#X obj 37 93 t b f f;
#X obj 36 16 inlet;
#X obj 74 277 outlet~;
#X msg 35 42 read -resize sounds/test-zero.wav test-zero;
#X connect 0 0 9 0;
#X connect 1 0 7 0;
#X connect 2 0 3 0;
#X connect 3 0 4 0;
#X connect 4 0 0 0;
#X connect 5 0 2 0;
#X connect 6 0 5 0;
#X connect 7 0 6 0;
#X connect 7 1 5 1;
#X connect 7 2 3 1;
#X connect 8 0 10 0;
#X connect 10 0 1 0;
#X restore 62 161 pd zero;
#N canvas 0 22 450 300 (subpatch) 0;
#X array test-one 44476 float 2;
#X coords 0 1 44476 -1 50 50 1;
#X restore 396 195 graph;
#X obj 281 185 sliderchannel;
#X obj 260 344 *~ 0;
#N canvas 0 22 450 300 one 0;
#X obj 32 67 soundfiler;
#X obj 73 174 phasor~ 0;
#X obj 75 201 *~ 0;
#X obj 74 225 +~ 1;
#X obj 39 150 /;
#X msg 12 116 44100;
#X obj 37 93 t b f f;
#X obj 36 16 inlet;
#X obj 74 277 outlet~;
#X obj 75 249 tabread4~ test-one;
#X msg 37 43 read -resize sounds/test-one.wav test-one;
#X connect 0 0 6 0;
#X connect 1 0 2 0;
#X connect 2 0 3 0;
#X connect 3 0 9 0;
#X connect 4 0 1 0;
#X connect 5 0 4 0;
#X connect 6 0 5 0;
#X connect 6 1 4 1;
#X connect 6 2 2 1;
#X connect 7 0 10 0;
#X connect 9 0 8 0;
#X connect 10 0 0 0;
#X restore 260 163 pd one;
#N canvas 0 22 450 300 (subpatch) 0;
#X array test-two 43029 float 2;
#X coords 0 1 43029 -1 50 50 1;
#X restore 593 196 graph;
#X obj 478 186 sliderchannel;
#X obj 457 345 *~ 0;
#N canvas 0 22 331 330 two 0;
#X obj 32 67 soundfiler;
#X obj 73 174 phasor~ 0;
#X obj 75 201 *~ 0;
#X obj 74 225 +~ 1;
#X obj 39 150 /;
#X msg 12 116 44100;
#X obj 37 93 t b f f;
#X obj 35 8 inlet;
#X obj 74 277 outlet~;
#X obj 75 248 tabread4~ test-two;
#X msg 30 39 read -resize sounds/test-two.wav test-two;
#X connect 0 0 6 0;
#X connect 1 0 2 0;
#X connect 2 0 3 0;
#X connect 3 0 9 0;
#X connect 4 0 1 0;
#X connect 5 0 4 0;
#X connect 6 0 5 0;
#X connect 6 1 4 1;
#X connect 6 2 2 1;
#X connect 7 0 10 0;
#X connect 9 0 8 0;
#X connect 10 0 0 0;
#X restore 456 166 pd two;
#N canvas 0 22 450 300 (subpatch) 0;
#X array test-three 46283 float 2;
#X coords 0 1 46283 -1 50 50 1;
#X restore 784 197 graph;
#X obj 669 187 sliderchannel;
#X obj 648 346 *~ 0;
#N canvas 0 22 331 330 three 0;
#X obj 32 67 soundfiler;
#X obj 73 174 phasor~ 0;
#X obj 75 201 *~ 0;
#X obj 74 225 +~ 1;
#X obj 39 150 /;
#X msg 12 116 44100;
#X obj 37 93 t b f f;
#X obj 35 8 inlet;
#X obj 74 277 outlet~;
#X msg 30 39 read -resize sounds/test-three.wav test-three;
#X obj 75 247 tabread4~ test-three;
#X connect 0 0 6 0;
#X connect 1 0 2 0;
#X connect 2 0 3 0;
#X connect 3 0 10 0;
#X connect 4 0 1 0;
#X connect 5 0 4 0;
#X connect 6 0 5 0;
#X connect 6 1 4 1;
#X connect 6 2 2 1;
#X connect 7 0 9 0;
#X connect 9 0 0 0;
#X connect 10 0 8 0;
#X restore 647 167 pd three;
#X obj 641 8 loadbang;
#X msg 542 89 bang;
#N canvas 0 22 450 300 (subpatch) 0;
#X array test-four 44114 float 2;
#X coords 0 1 44114 -1 50 50 1;
#X restore 985 197 graph;
#X obj 870 187 sliderchannel;
#X obj 849 346 *~ 0;
#N canvas 0 22 331 330 four 0;
#X obj 32 67 soundfiler;
#X obj 73 174 phasor~ 0;
#X obj 75 201 *~ 0;
#X obj 74 225 +~ 1;
#X obj 39 150 /;
#X msg 12 116 44100;
#X obj 37 93 t b f f;
#X obj 35 8 inlet;
#X obj 74 277 outlet~;
#X msg 30 39 read -resize sounds/test-four.wav test-four;
#X obj 75 247 tabread4~ test-four;
#X connect 0 0 6 0;
#X connect 1 0 2 0;
#X connect 2 0 3 0;
#X connect 3 0 10 0;
#X connect 4 0 1 0;
#X connect 5 0 4 0;
#X connect 6 0 5 0;
#X connect 6 1 4 1;
#X connect 6 2 2 1;
#X connect 7 0 9 0;
#X connect 9 0 0 0;
#X connect 10 0 8 0;
#X restore 848 167 pd four;
#N canvas 0 22 450 300 (subpatch) 0;
#X array test-five 48091 float 2;
#X coords 0 1 48091 -1 50 50 1;
#X restore 1187 191 graph;
#X obj 1072 181 sliderchannel;
#X obj 1051 340 *~ 0;
#N canvas 0 22 331 330 five 0;
#X obj 32 67 soundfiler;
#X obj 73 174 phasor~ 0;
#X obj 75 201 *~ 0;
#X obj 74 225 +~ 1;
#X obj 39 150 /;
#X msg 12 116 44100;
#X obj 37 93 t b f f;
#X obj 35 8 inlet;
#X obj 74 277 outlet~;
#X msg 31 39 read -resize sounds/test-five.wav test-five;
#X obj 75 247 tabread4~ test-five;
#X connect 0 0 6 0;
#X connect 1 0 2 0;
#X connect 2 0 3 0;
#X connect 3 0 10 0;
#X connect 4 0 1 0;
#X connect 5 0 4 0;
#X connect 6 0 5 0;
#X connect 6 1 4 1;
#X connect 6 2 2 1;
#X connect 7 0 9 0;
#X connect 9 0 0 0;
#X connect 10 0 8 0;
#X restore 1050 161 pd five;
#X msg 596 47 \; pd dsp 1;
#X obj 739 101 emg is totally awesome;
#X obj 545 54 t b b;
#X msg 740 67 open 2;
#X msg 799 63 analogIns 5 1;
#N canvas 162 133 610 460 serin 0;
#X obj 59 337 outlet;
#X obj 59 266 trigger bang anything;
#X obj 201 286 list;
#X obj 60 61 tgl 15 0 junk_to_hide_inlet ARDUINO_TEST_RESET 0 5 9 1
12 -262130 -1 -1 0 1;
#X obj 75 61 tgl 15 0 junk_to_hide_inlet ARDUINO_TEST_RESET 1 5 9 1
12 -262130 -1 -1 0 1;
#X obj 90 61 tgl 15 0 junk_to_hide_inlet ARDUINO_TEST_RESET 2 5 9 1
12 -262130 -1 -1 0 1;
#X obj 105 61 tgl 15 0 junk_to_hide_inlet ARDUINO_TEST_RESET 3 5 9
1 12 -262130 -1 -1 0 1;
#X obj 120 61 tgl 15 0 junk_to_hide_inlet ARDUINO_TEST_RESET 4 5 9
1 12 -262130 -1 -1 0 1;
#X obj 135 61 tgl 15 0 junk_to_hide_inlet ARDUINO_TEST_RESET 5 5 9
1 12 -262130 -1 -1 0 1;
#X obj 150 61 tgl 15 0 junk_to_hide_inlet ARDUINO_TEST_RESET 6 5 9
1 12 -262130 -1 -1 0 1;
#X obj 165 61 tgl 15 0 junk_to_hide_inlet ARDUINO_TEST_RESET 7 5 9
1 12 -262130 -1 -1 0 1;
#X msg 59 210 analogIns \$1 \$2;
#X msg 35 106 0 \$1;
#X msg 70 106 1 \$1;
#X msg 105 106 2 \$1;
#X msg 140 106 3 \$1;
#X msg 175 106 4 \$1;
#X msg 210 106 5 \$1;
#X msg 245 106 6 \$1;
#X msg 280 106 7 \$1;
#X msg 202 307 set \$1 \$2 \$3;
#X connect 1 0 0 0;
#X connect 1 1 2 0;
#X connect 2 0 20 0;
#X connect 3 0 12 0;
#X connect 4 0 13 0;
#X connect 5 0 14 0;
#X connect 6 0 15 0;
#X connect 7 0 16 0;
#X connect 8 0 17 0;
#X connect 9 0 18 0;
#X connect 10 0 19 0;
#X connect 11 0 1 0;
#X connect 12 0 11 0;
#X connect 13 0 11 0;
#X connect 14 0 11 0;
#X connect 15 0 11 0;
#X connect 16 0 11 0;
#X connect 17 0 11 0;
#X connect 18 0 11 0;
#X connect 19 0 11 0;
#X connect 20 0 0 0;
#X coords 0 -1 1 1 120 16 1 60 60;
#X restore 799 43 pd serin;
#X msg 696 65 close;
#X connect 1 0 2 1;
#X connect 2 0 3 0;
#X connect 2 0 3 1;
#X connect 4 0 2 0;
#X connect 6 0 7 1;
#X connect 7 0 3 0;
#X connect 7 0 3 1;
#X connect 8 0 7 0;
#X connect 10 0 11 1;
#X connect 11 0 3 0;
#X connect 11 0 3 1;
#X connect 12 0 11 0;
#X connect 14 0 15 1;
#X connect 15 0 3 0;
#X connect 15 0 3 1;
#X connect 16 0 15 0;
#X connect 17 0 29 0;
#X connect 17 0 30 0;
#X connect 18 0 4 0;
#X connect 18 0 8 0;
#X connect 18 0 12 0;
#X connect 18 0 16 0;
#X connect 18 0 22 0;
#X connect 18 0 26 0;
#X connect 20 0 21 1;
#X connect 21 0 3 0;
#X connect 21 0 3 1;
#X connect 22 0 21 0;
#X connect 24 0 25 1;
#X connect 25 0 3 0;
#X connect 25 0 3 1;
#X connect 26 0 25 0;
#X connect 28 0 1 0;
#X connect 28 1 6 0;
#X connect 28 2 10 0;
#X connect 28 3 14 0;
#X connect 28 4 20 0;
#X connect 28 5 24 0;
#X connect 29 0 26 0;
#X connect 29 0 22 0;
#X connect 29 0 16 0;
#X connect 29 0 12 0;
#X connect 29 0 8 0;
#X connect 29 0 4 0;
#X connect 29 1 27 0;
#X connect 30 0 28 0;
#X connect 31 0 28 0;
#X connect 32 0 31 0;
#X connect 33 0 28 0;
