#N canvas 529 22 744 755 10;
#X obj 72 200 step_detection;
#X obj 72 35 sliderchannel;
#X obj 72 252 tgl 15 0 empty empty empty 17 7 0 10 -262144 -1 -1 1
1;
#X obj 112 253 tgl 15 0 empty empty empty 17 7 0 10 -262144 -1 -1 0
1;
#X obj 153 254 tgl 15 0 empty empty empty 17 7 0 10 -262144 -1 -1 1
1;
#X obj 153 227 != 1;
#X obj 72 296 three_step_noise;
#X obj 67 338 output~;
#X connect 0 0 2 0;
#X connect 0 1 3 0;
#X connect 0 2 5 0;
#X connect 1 0 0 0;
#X connect 2 0 6 0;
#X connect 3 0 6 1;
#X connect 4 0 6 2;
#X connect 5 0 4 0;
#X connect 6 0 7 0;
#X connect 6 0 7 1;
