#N canvas 10 171 781 438 10;
#X obj 322 23 emg is totally awesome;
#X obj 38 80 sliderchannel;
#X obj 151 81 sliderchannel;
#X obj 262 82 sliderchannel;
#X obj 373 83 sliderchannel;
#X obj 480 83 sliderchannel;
#X obj 589 84 sliderchannel;
#X obj 311 285 three_chord;
#X obj 320 334 output~;
#X connect 0 0 1 0;
#X connect 0 1 2 0;
#X connect 0 2 3 0;
#X connect 0 3 4 0;
#X connect 0 4 5 0;
#X connect 0 5 6 0;
#X connect 1 0 7 0;
#X connect 2 0 7 1;
#X connect 3 0 7 2;
#X connect 4 0 7 3;
#X connect 5 0 7 4;
#X connect 6 0 7 5;
#X connect 7 0 8 0;
#X connect 7 1 8 1;
