#N canvas 4 22 1276 756 10;
#X obj 326 110 emg is totally awesome;
#X obj 42 167 sliderchannel;
#X obj 155 168 sliderchannel;
#X obj 266 169 sliderchannel;
#X obj 377 170 sliderchannel;
#X obj 484 170 sliderchannel;
#X obj 593 171 sliderchannel;
#X obj 315 372 three_chord;
#X obj 324 421 output~;
#X msg 346 78 open 2;
#X msg 326 56 close;
#X connect 0 0 1 0;
#X connect 0 1 2 0;
#X connect 0 2 3 0;
#X connect 0 3 4 0;
#X connect 0 4 5 0;
#X connect 0 5 6 0;
#X connect 1 0 7 0;
#X connect 2 0 7 1;
#X connect 3 0 7 2;
#X connect 4 0 7 3;
#X connect 5 0 7 4;
#X connect 6 0 7 5;
#X connect 7 0 8 0;
#X connect 7 1 8 1;
#X connect 9 0 0 0;
#X connect 10 0 0 0;
