#N canvas 473 22 806 747 10;
#X obj 326 110 emg is totally awesome;
#X obj 42 167 sliderchannel;
#X obj 155 168 sliderchannel;
#X obj 266 169 sliderchannel;
#X obj 377 170 sliderchannel;
#X obj 484 170 sliderchannel;
#X obj 593 171 sliderchannel;
#X obj 272 401 three_chord;
#X obj 354 576 output~;
#X msg 346 78 open 2;
#X msg 326 56 close;
#X obj 140 401 sliderchannel;
#X obj 273 490 *~ 0;
#X obj 335 493 *~ 0;
#X obj 454 82 bng 15 250 50 0 empty empty empty 17 7 0 10 -262144 -1
-1;
#X obj 416 402 pulsetrain;
#X obj 417 496 *~ 0;
#X obj 293 465 r bus1;
#X obj 356 467 r bus1;
#X obj 475 494 *~ 0;
#X obj 140 563 s bus1;
#X obj 538 400 sliderchannel;
#X obj 538 562 s bus2;
#X obj 438 464 r bus2;
#X obj 497 464 r bus2;
#X connect 0 0 1 0;
#X connect 0 1 2 0;
#X connect 0 2 3 0;
#X connect 0 3 4 0;
#X connect 0 4 5 0;
#X connect 0 5 6 0;
#X connect 1 0 7 0;
#X connect 1 0 15 0;
#X connect 2 0 7 1;
#X connect 2 0 15 1;
#X connect 3 0 7 2;
#X connect 3 0 15 2;
#X connect 4 0 7 3;
#X connect 4 0 15 3;
#X connect 5 0 7 4;
#X connect 5 0 15 4;
#X connect 6 0 7 5;
#X connect 6 0 15 5;
#X connect 7 0 12 0;
#X connect 7 1 13 0;
#X connect 9 0 0 0;
#X connect 10 0 0 0;
#X connect 11 0 20 0;
#X connect 12 0 8 0;
#X connect 13 0 8 1;
#X connect 14 0 0 1;
#X connect 15 0 16 0;
#X connect 15 1 19 0;
#X connect 16 0 8 0;
#X connect 17 0 12 1;
#X connect 18 0 13 1;
#X connect 19 0 8 1;
#X connect 21 0 22 0;
#X connect 23 0 16 1;
#X connect 24 0 19 1;
